<svg xmlns="http://www.w3.org/2000/svg" xmlns:xlink="http://www.w3.org/1999/xlink" xmlns:lucid="lucid" width="1760" height="1360"><g transform="translate(0 0)" lucid:page-tab-id="0_0"><path d="M0 0h1760v1360H0z" fill="#fff"/><path d="M453.15 76a8 8 0 0 1 8-8h836.75a8 8 0 0 1 8 8v25.16a8 8 0 0 1-8 8H461.15a8 8 0 0 1-8-8z" stroke="#000" stroke-opacity="0" stroke-width="2" fill="#fff" fill-opacity="0"/><use xlink:href="#a" transform="matrix(1,0,0,1,457.1465527853429,71.99999999994924) translate(209.76802469135808 25.782777777777778)"/><use xlink:href="#b" transform="matrix(1,0,0,1,457.1465527853429,71.99999999994924) translate(333.37666666666667 25.782777777777778)"/><use xlink:href="#c" transform="matrix(1,0,0,1,457.1465527853429,71.99999999994924) translate(377.0075308641975 25.782777777777778)"/><use xlink:href="#d" transform="matrix(1,0,0,1,457.1465527853429,71.99999999994924) translate(486.1211111111111 25.782777777777778)"/><use xlink:href="#e" transform="matrix(1,0,0,1,457.1465527853429,71.99999999994924) translate(583.9445679012346 25.782777777777778)"/><path d="M628.63 107.8h505.86M628.66 107.8h-1.02M1134.47 107.8h1.02" stroke="#a9afb8" stroke-width="2" fill="none"/><path d="M453.15 117.16a8 8 0 0 1 8-8h837.7a8 8 0 0 1 8 8V120a8 8 0 0 1-8 8h-837.7a8 8 0 0 1-8-8z" stroke="#000" stroke-opacity="0" stroke-width="2" fill="#fff" fill-opacity="0"/><use xlink:href="#f" transform="matrix(1,0,0,1,457.1465527853434,113.15522395684805) translate(298.26725308641977 14.917037037037037)"/><use xlink:href="#g" transform="matrix(1,0,0,1,457.1465527853434,113.15522395684805) translate(350.784537037037 14.917037037037037)"/><use xlink:href="#h" transform="matrix(1,0,0,1,457.1465527853434,113.15522395684805) translate(403.471779835391 14.917037037037037)"/><use xlink:href="#i" transform="matrix(1,0,0,1,457.1465527853434,113.15522395684805) translate(415.9212654320988 14.917037037037037)"/><use xlink:href="#j" transform="matrix(1,0,0,1,457.1465527853434,113.15522395684805) translate(494.86715020576133 14.917037037037037)"/><use xlink:href="#k" transform="matrix(1,0,0,1,457.1465527853434,113.15522395684805) translate(520.3609773662552 14.917037037037037)"/><path d="M80 96a16 16 0 0 1 16-16h208a16 16 0 0 1 16 16v148a16 16 0 0 1-16 16H96a16 16 0 0 1-16-16z" stroke="#4c535d" stroke-width="2" fill="#fff"/><path d="M155.45 171.62c0 8.93-7.24 16.16-16.17 16.16-8.93 0-16.17-7.23-16.17-16.16s7.25-16.17 16.18-16.17 16.17 7.24 16.17 16.17z" stroke="#000" stroke-opacity=".25" fill="#a9afb8"/><path d="M155.45 214.73c0 8.93-7.24 16.17-16.17 16.17-8.93 0-16.17-7.24-16.17-16.17 0-8.93 7.25-16.17 16.18-16.17s16.17 7.24 16.17 16.17z" stroke="#000" stroke-opacity=".25" fill="#cfe4ff"/><use xlink:href="#l" transform="matrix(1,0,0,1,123.11377245508982,112.33532934131736) translate(17.049999999999997 14.4)"/><use xlink:href="#m" transform="matrix(1,0,0,1,123.11377245508982,112.33532934131736) translate(36.525 38.160000000000004)"/><use xlink:href="#n" transform="matrix(1,0,0,1,171.61676646706587,155.4491017964072) translate(0 19.3)"/><use xlink:href="#o" transform="matrix(1,0,0,1,171.61676646706587,155.4491017964072) translate(52.81111111111111 19.3)"/><use xlink:href="#p" transform="matrix(1,0,0,1,171.61676646706587,198.56287425149702) translate(0 19.3)"/><use xlink:href="#o" transform="matrix(1,0,0,1,171.61676646706587,198.56287425149702) translate(63.73888888888889 19.3)"/><path d="M60 428a8 8 0 0 1 8-8h404a8 8 0 0 1 8 8v290a8 8 0 0 1-8 8H68a8 8 0 0 1-8-8z" fill="#fff"/><path d="M60 428a8 8 0 0 1 8-8h404a8 8 0 0 1 8 8v290a8 8 0 0 1-8 8H68a8 8 0 0 1-8-8zM60 460h420M120 460v266M337.87 460v266" stroke="#3a414a" fill="none"/><use xlink:href="#q" transform="matrix(1,0,0,1,70,420) translate(166.575 23.6)"/><use xlink:href="#r" transform="matrix(1,0,0,1,65,462.5) translate(6.224999999999998 16.799999999999997)"/><use xlink:href="#s" transform="matrix(1,0,0,1,65,462.5) translate(2.049999999999997 38.4)"/><use xlink:href="#t" transform="matrix(1,0,0,1,125,462.5) translate(81.525 27.6)"/><use xlink:href="#u" transform="matrix(1,0,0,1,342.86666666666684,462.5) translate(15.599999999999994 27.6)"/><use xlink:href="#r" transform="matrix(1,0,0,1,65,515.5) translate(6.224999999999998 16.799999999999997)"/><use xlink:href="#s" transform="matrix(1,0,0,1,65,515.5) translate(2.049999999999997 38.4)"/><use xlink:href="#v" transform="matrix(1,0,0,1,125,515.5) translate(53.12499999999999 27.6)"/><use xlink:href="#w" transform="matrix(1,0,0,1,342.86666666666684,515.5) translate(15.599999999999994 27.6)"/><use xlink:href="#x" transform="matrix(1,0,0,1,125,568.5) translate(54.599999999999994 17.1)"/><use xlink:href="#u" transform="matrix(1,0,0,1,342.86666666666684,568.5) translate(15.599999999999994 17.1)"/><use xlink:href="#y" transform="matrix(1,0,0,1,65,600.5) translate(15.5 17.1)"/><use xlink:href="#z" transform="matrix(1,0,0,1,125,600.5) translate(97.025 17.1)"/><use xlink:href="#A" transform="matrix(1,0,0,1,342.86666666666684,600.5) translate(57.025 17.1)"/><use xlink:href="#B" transform="matrix(1,0,0,1,65,632.5) translate(18 17.1)"/><use xlink:href="#C" transform="matrix(1,0,0,1,125,632.5) translate(66.55 17.1)"/><use xlink:href="#A" transform="matrix(1,0,0,1,342.86666666666684,632.5) translate(57.025 17.1)"/><use xlink:href="#B" transform="matrix(1,0,0,1,65,664.5) translate(18 17.1)"/><use xlink:href="#D" transform="matrix(1,0,0,1,125,664.5) translate(69.05 17.1)"/><use xlink:href="#A" transform="matrix(1,0,0,1,342.86666666666684,664.5) translate(57.025 17.1)"/><use xlink:href="#E" transform="matrix(1,0,0,1,65,696.5) translate(18 17.1)"/><use xlink:href="#F" transform="matrix(1,0,0,1,125,696.5) translate(61.574999999999996 17.1)"/><use xlink:href="#G" transform="matrix(1,0,0,1,342.86666666666684,696.5) translate(57.025 17.1)"/><path d="M133.15 936.18a8 8 0 0 1 8-8h304a8 8 0 0 1 8 8v109a8 8 0 0 1-8 8h-304a8 8 0 0 1-8-8z" fill="#fff"/><path d="M133.15 936.18a8 8 0 0 1 8-8h304a8 8 0 0 1 8 8v109a8 8 0 0 1-8 8h-304a8 8 0 0 1-8-8zM133.15 968.18h320M193.15 968.18v85M336.35 968.18v85" stroke="#3a414a" fill="none"/><use xlink:href="#H" transform="matrix(1,0,0,1,143.14655278534337,928.1766800102778) translate(124.025 23.6)"/><use xlink:href="#y" transform="matrix(1,0,0,1,138.14655278534337,970.6766800102778) translate(15.5 17.1)"/><use xlink:href="#z" transform="matrix(1,0,0,1,198.14655278534337,970.6766800102778) translate(60.025 17.1)"/><use xlink:href="#A" transform="matrix(1,0,0,1,341.34655278534353,970.6766800102778) translate(44.025 17.1)"/><use xlink:href="#I" transform="matrix(1,0,0,1,138.14655278534337,1002.6766800102778) translate(12.5 16.799999999999997)"/><use xlink:href="#J" transform="matrix(1,0,0,1,138.14655278534337,1002.6766800102778) translate(11.05 38.4)"/><use xlink:href="#t" transform="matrix(1,0,0,1,198.14655278534337,1002.6766800102778) translate(44.525 27.6)"/><use xlink:href="#u" transform="matrix(1,0,0,1,341.34655278534353,1002.6766800102778) translate(2.5999999999999943 27.6)"/><path d="M1180 420.6a8 8 0 0 1 8-8h284a8 8 0 0 1 8 8v109a8 8 0 0 1-8 8h-284a8 8 0 0 1-8-8z" fill="#fff"/><path d="M1180 420.6a8 8 0 0 1 8-8h284a8 8 0 0 1 8 8v109a8 8 0 0 1-8 8h-284a8 8 0 0 1-8-8zM1180 452.6h300M1240 452.6v85M1368.53 452.6v85" stroke="#3a414a" fill="none"/><use xlink:href="#K" transform="matrix(1,0,0,1,1190,412.5881134931934) translate(125.525 23.6)"/><use xlink:href="#y" transform="matrix(1,0,0,1,1185,455.0881134931934) translate(15.5 17.1)"/><use xlink:href="#z" transform="matrix(1,0,0,1,1245,455.0881134931934) translate(52.525 17.1)"/><use xlink:href="#A" transform="matrix(1,0,0,1,1373.5333333333335,455.0881134931934) translate(41.525 17.1)"/><use xlink:href="#I" transform="matrix(1,0,0,1,1185,487.0881134931934) translate(12.5 16.799999999999997)"/><use xlink:href="#J" transform="matrix(1,0,0,1,1185,487.0881134931934) translate(11.05 38.4)"/><use xlink:href="#t" transform="matrix(1,0,0,1,1245,487.0881134931934) translate(37.025 27.6)"/><use xlink:href="#L" transform="matrix(1,0,0,1,1373.5333333333335,487.0881134931934) translate(5.099999999999994 27.6)"/><path d="M293.15 907.68v-68.6a12 12 0 0 1 12-12h37.72a12 12 0 0 0 12-12v-69.17" stroke="#3a414a" fill="none"/><path d="M303.15 907.68h-20M293.15 927.68v-20" stroke="#3a414a" fill="#fff"/><path d="M364.87 726.72l-10 20-10-20" stroke="#3a414a" fill="#fff" fill-opacity="0"/><path d="M354.87 726.72v20" stroke="#3a414a" fill="#fff"/><path d="M700 628a8 8 0 0 1 8-8h344a8 8 0 0 1 8 8v120a8 8 0 0 1-8 8H708a8 8 0 0 1-8-8z" fill="#fff"/><path d="M700 628a8 8 0 0 1 8-8h344a8 8 0 0 1 8 8v120a8 8 0 0 1-8 8H708a8 8 0 0 1-8-8zM700 660h360M805.16 660v96M940.75 660v96" stroke="#3a414a" fill="none"/><use xlink:href="#M" transform="matrix(1,0,0,1,710,620) translate(120.07499999999999 23.6)"/><use xlink:href="#y" transform="matrix(1,0,0,1,705,662.5) translate(38.5 17.1)"/><use xlink:href="#z" transform="matrix(1,0,0,1,810.159611569228,662.5) translate(56.025 17.1)"/><use xlink:href="#A" transform="matrix(1,0,0,1,945.7478805497251,662.5) translate(45.525 17.1)"/><use xlink:href="#B" transform="matrix(1,0,0,1,705,694.5) translate(41 17.1)"/><use xlink:href="#N" transform="matrix(1,0,0,1,810.159611569228,694.5) translate(38.525 17.1)"/><use xlink:href="#A" transform="matrix(1,0,0,1,945.7478805497251,694.5) translate(45.525 17.1)"/><use xlink:href="#B" transform="matrix(1,0,0,1,705,726.5) translate(41 17.1)"/><use xlink:href="#O" transform="matrix(1,0,0,1,810.159611569228,726.5) translate(18.599999999999994 17.1)"/><use xlink:href="#A" transform="matrix(1,0,0,1,945.7478805497251,726.5) translate(45.525 17.1)"/><path d="M1159.5 468.57H931.68a12 12 0 0 0-12 12V600.1" stroke="#3a414a" fill="none"/><path d="M1159.5 458.57v20M1179.5 468.57h-20" stroke="#3a414a" fill="#fff"/><path d="M909.68 619.28l10-20 10 20" stroke="#3a414a" fill="#fff" fill-opacity="0"/><path d="M919.68 619.28v-20" stroke="#3a414a" fill="#fff"/><path d="M500.5 582H578a12 12 0 0 1 12 12v89.5a12 12 0 0 0 12 12h78.1" stroke="#3a414a" fill="none"/><path d="M500.5 592v-20M480.5 582h20" stroke="#3a414a" fill="#fff"/><path d="M699.28 705.5l-20-10 20-10" stroke="#3a414a" fill="#fff" fill-opacity="0"/><path d="M699.28 695.5h-20" stroke="#3a414a" fill="#fff"/><path d="M620 968a8 8 0 0 1 8-8h293.9a8 8 0 0 1 8 8v56a8 8 0 0 1-8 8H628a8 8 0 0 1-8-8z" fill="#fff"/><path d="M620 968a8 8 0 0 1 8-8h293.9a8 8 0 0 1 8 8v56a8 8 0 0 1-8 8H628a8 8 0 0 1-8-8zM620 1000h309.9M703.8 1000v32M822.6 1000v32" stroke="#3a414a" fill="none"/><use xlink:href="#P" transform="matrix(1,0,0,1,630,960) translate(120.025 23.6)"/><use xlink:href="#y" transform="matrix(1,0,0,1,625,1002.5) translate(27.5 17.1)"/><use xlink:href="#t" transform="matrix(1,0,0,1,708.8106944597338,1002.5) translate(32.025 17.1)"/><use xlink:href="#Q" transform="matrix(1,0,0,1,827.6138258944005,1002.5) translate(3.0999999999999943 17.1)"/><path d="M774.95 939.5V855a12 12 0 0 0-12-12h-329.1a12 12 0 0 1-12-12v-85.1" stroke="#3a414a" fill="none"/><path d="M784.95 939.5h-20M774.95 959.5v-20" stroke="#3a414a" fill="#fff"/><path d="M431.86 726.72l-10 20-10-20" stroke="#3a414a" fill="#fff" fill-opacity="0"/><path d="M421.86 726.72v20" stroke="#3a414a" fill="#fff"/><path d="M680 188a8 8 0 0 1 8-8h324a8 8 0 0 1 8 8v109a8 8 0 0 1-8 8H688a8 8 0 0 1-8-8z" fill="#fff"/><path d="M680 188a8 8 0 0 1 8-8h324a8 8 0 0 1 8 8v109a8 8 0 0 1-8 8H688a8 8 0 0 1-8-8zM680 220h340M776.8 220v85M897.07 220v85" stroke="#3a414a" fill="none"/><g><use xlink:href="#R" transform="matrix(1,0,0,1,690,180) translate(127.725 23.6)"/></g><g><use xlink:href="#S" transform="matrix(1,0,0,1,685,222.5) translate(31.5 17.1)"/></g><g><use xlink:href="#T" transform="matrix(1,0,0,1,781.8000000000002,222.5) translate(48.525 17.1)"/></g><g><use xlink:href="#G" transform="matrix(1,0,0,1,902.0666666666665,222.5) translate(47.025 17.1)"/></g><g><use xlink:href="#U" transform="matrix(1,0,0,1,685,254.5) translate(24.724999999999998 16.799999999999997)"/><use xlink:href="#V" transform="matrix(1,0,0,1,685,254.5) translate(20.549999999999997 38.4)"/></g><g><use xlink:href="#W" transform="matrix(1,0,0,1,781.8000000000002,254.5) translate(33.025 27.6)"/></g><g><use xlink:href="#X" transform="matrix(1,0,0,1,902.0666666666665,254.5) translate(5.599999999999994 27.6)"/></g><path d="M659.5 278.5H363.17a12 12 0 0 0-12 12v109.6" stroke="#3a414a" fill="none"/><path d="M659.5 268.5v20M679.5 278.5h-20" stroke="#3a414a" fill="#fff"/><path d="M341.17 419.28l10-20 10 20" stroke="#3a414a" fill="#fff" fill-opacity="0"/><path d="M351.17 419.28v-20" stroke="#3a414a" fill="#fff"/><defs><path fill="#a9afb8" d="M24-248c120-7 223 5 221 122C244-46 201 0 124 0H24v-248zM76-40c74 7 117-18 117-86 0-67-45-88-117-82v168" id="Y"/><path fill="#a9afb8" d="M133-34C117-15 103 5 69 4 32 3 11-16 11-54c-1-60 55-63 116-61 1-26-3-47-28-47-18 1-26 9-28 27l-52-2c7-38 36-58 82-57s74 22 75 68l1 82c-1 14 12 18 25 15v27c-30 8-71 5-69-32zm-48 3c29 0 43-24 42-57-32 0-66-3-65 30 0 17 8 27 23 27" id="Z"/><path fill="#a9afb8" d="M115-3C79 11 28 4 28-45v-112H4v-33h27l15-45h31v45h36v33H77v99c-1 23 16 31 38 25v30" id="aa"/><path fill="#a9afb8" d="M135-194c52 0 70 43 70 98 0 56-19 99-73 100-30 1-46-15-58-35L72 0H24l1-261h50v104c11-23 29-37 60-37zM114-30c31 0 40-27 40-66 0-37-7-63-39-63s-41 28-41 65c0 36 8 64 40 64" id="ab"/><path fill="#a9afb8" d="M137-138c1-29-70-34-71-4 15 46 118 7 119 86 1 83-164 76-172 9l43-7c4 19 20 25 44 25 33 8 57-30 24-41C81-84 22-81 20-136c-2-80 154-74 161-7" id="ac"/><path fill="#a9afb8" d="M185-48c-13 30-37 53-82 52C43 2 14-33 14-96s30-98 90-98c62 0 83 45 84 108H66c0 31 8 55 39 56 18 0 30-7 34-22zm-45-69c5-46-57-63-70-21-2 6-4 13-4 21h74" id="ad"/><g id="a"><use transform="matrix(0.0728395061728395,0,0,0.0728395061728395,0,0)" xlink:href="#Y"/><use transform="matrix(0.0728395061728395,0,0,0.0728395061728395,18.86543209876543,0)" xlink:href="#Z"/><use transform="matrix(0.0728395061728395,0,0,0.0728395061728395,33.43333333333333,0)" xlink:href="#aa"/><use transform="matrix(0.0728395061728395,0,0,0.0728395061728395,42.10123456790124,0)" xlink:href="#Z"/><use transform="matrix(0.0728395061728395,0,0,0.0728395061728395,56.66913580246913,0)" xlink:href="#ab"/><use transform="matrix(0.0728395061728395,0,0,0.0728395061728395,72.62098765432098,0)" xlink:href="#Z"/><use transform="matrix(0.0728395061728395,0,0,0.0728395061728395,87.18888888888888,0)" xlink:href="#ac"/><use transform="matrix(0.0728395061728395,0,0,0.0728395061728395,101.75679012345678,0)" xlink:href="#ad"/></g><path fill="#a9afb8" d="M24 0v-248h195v40H76v63h132v40H76v65h150V0H24" id="ae"/><path fill="#a9afb8" d="M240-174c0 40-23 61-54 70L253 0h-59l-57-94H76V0H24v-248c93 4 217-23 216 74zM76-134c48-2 112 12 112-38 0-48-66-32-112-35v73" id="af"/><g id="b"><use transform="matrix(0.0728395061728395,0,0,0.0728395061728395,0,0)" xlink:href="#ae"/><use transform="matrix(0.0728395061728395,0,0,0.0728395061728395,17.48148148148148,0)" xlink:href="#af"/></g><path fill="#a9afb8" d="M88-194c31-1 46 15 58 34l-1-101h50l1 261h-48c-2-10 0-23-3-31C134-8 116 4 84 4 32 4 16-41 15-95c0-56 19-97 73-99zm17 164c33 0 40-30 41-66 1-37-9-64-41-64s-38 30-39 65c0 43 13 65 39 65" id="ag"/><path fill="#a9afb8" d="M25-224v-37h50v37H25zM25 0v-190h50V0H25" id="ah"/><path fill="#a9afb8" d="M195-6C206 82 75 100 31 46c-4-6-6-13-8-21l49-6c3 16 16 24 34 25 40 0 42-37 40-79-11 22-30 35-61 35-53 0-70-43-70-97 0-56 18-96 73-97 30 0 46 14 59 34l2-30h47zm-90-29c32 0 41-27 41-63 0-35-9-62-40-62-32 0-39 29-40 63 0 36 9 62 39 62" id="ai"/><path fill="#a9afb8" d="M135-150c-39-12-60 13-60 57V0H25l-1-190h47c2 13-1 29 3 40 6-28 27-53 61-41v41" id="aj"/><path fill="#a9afb8" d="M220-157c-53 9-28 100-34 157h-49v-107c1-27-5-49-29-50C55-147 81-57 75 0H25l-1-190h47c2 12-1 28 3 38 10-53 101-56 108 0 13-22 24-43 59-42 82 1 51 116 57 194h-49v-107c-1-25-5-48-29-50" id="ak"/><g id="c"><use transform="matrix(0.0728395061728395,0,0,0.0728395061728395,0,0)" xlink:href="#ag"/><use transform="matrix(0.0728395061728395,0,0,0.0728395061728395,15.95185185185185,0)" xlink:href="#ah"/><use transform="matrix(0.0728395061728395,0,0,0.0728395061728395,23.235802469135802,0)" xlink:href="#Z"/><use transform="matrix(0.0728395061728395,0,0,0.0728395061728395,37.803703703703704,0)" xlink:href="#ai"/><use transform="matrix(0.0728395061728395,0,0,0.0728395061728395,53.75555555555555,0)" xlink:href="#aj"/><use transform="matrix(0.0728395061728395,0,0,0.0728395061728395,63.953086419753085,0)" xlink:href="#Z"/><use transform="matrix(0.0728395061728395,0,0,0.0728395061728395,78.52098765432099,0)" xlink:href="#ak"/></g><path fill="#a9afb8" d="M67-93c0 74 22 123 53 168H70C40 30 18-18 18-93s22-123 52-168h50c-32 44-53 94-53 168" id="al"/><path fill="#a9afb8" d="M190-63c-7 42-38 67-86 67-59 0-84-38-90-98-12-110 154-137 174-36l-49 2c-2-19-15-32-35-32-30 0-35 28-38 64-6 74 65 87 74 30" id="am"/><path fill="#a9afb8" d="M110-194c64 0 96 36 96 99 0 64-35 99-97 99-61 0-95-36-95-99 0-62 34-99 96-99zm-1 164c35 0 45-28 45-65 0-40-10-65-43-65-34 0-45 26-45 65 0 36 10 65 43 65" id="an"/><path fill="#a9afb8" d="M231 0h-52l-39-155L100 0H48L-1-190h46L77-45c9-52 24-97 36-145h53l37 145 32-145h46" id="ao"/><path fill="#a9afb8" d="M62-158H24l-5-90h48" id="ap"/><g id="d"><use transform="matrix(0.0728395061728395,0,0,0.0728395061728395,0,0)" xlink:href="#al"/><use transform="matrix(0.0728395061728395,0,0,0.0728395061728395,8.667901234567902,0)" xlink:href="#am"/><use transform="matrix(0.0728395061728395,0,0,0.0728395061728395,23.235802469135802,0)" xlink:href="#aj"/><use transform="matrix(0.0728395061728395,0,0,0.0728395061728395,33.43333333333333,0)" xlink:href="#an"/><use transform="matrix(0.0728395061728395,0,0,0.0728395061728395,49.38518518518518,0)" xlink:href="#ao"/><use transform="matrix(0.0728395061728395,0,0,0.0728395061728395,69.78024691358024,0)" xlink:href="#ap"/><use transform="matrix(0.0728395061728395,0,0,0.0728395061728395,75.9716049382716,0)" xlink:href="#ac"/></g><path fill="#a9afb8" d="M121-226c-27-7-43 5-38 36h38v33H83V0H34v-157H6v-33h28c-9-59 32-81 87-68v32" id="aq"/><path fill="#a9afb8" d="M102-93c0 74-22 123-52 168H0C30 29 54-18 53-93c0-74-22-123-53-168h50c30 45 52 94 52 168" id="ar"/><g id="e"><use transform="matrix(0.0728395061728395,0,0,0.0728395061728395,0,0)" xlink:href="#aq"/><use transform="matrix(0.0728395061728395,0,0,0.0728395061728395,8.667901234567902,0)" xlink:href="#an"/><use transform="matrix(0.0728395061728395,0,0,0.0728395061728395,24.619753086419752,0)" xlink:href="#an"/><use transform="matrix(0.0728395061728395,0,0,0.0728395061728395,40.571604938271605,0)" xlink:href="#aa"/><use transform="matrix(0.0728395061728395,0,0,0.0728395061728395,49.239506172839505,0)" xlink:href="#ar"/></g><path fill="#a9afb8" d="M212-179c-10-28-35-45-73-45-59 0-87 40-87 99 0 60 29 101 89 101 43 0 62-24 78-52l27 14C228-24 195 4 139 4 59 4 22-46 18-125c-6-104 99-153 187-111 19 9 31 26 39 46" id="as"/><path fill="#a9afb8" d="M24-231v-30h32v30H24zM24 0v-190h32V0H24" id="at"/><path fill="#a9afb8" d="M100-194c62-1 85 37 85 99 1 63-27 99-86 99S16-35 15-95c0-66 28-99 85-99zM99-20c44 1 53-31 53-75 0-43-8-75-51-75s-53 32-53 75 10 74 51 75" id="au"/><path fill="#a9afb8" d="M114-163C36-179 61-72 57 0H25l-1-190h30c1 12-1 29 2 39 6-27 23-49 58-41v29" id="av"/><path fill="#a9afb8" d="M117-194c89-4 53 116 60 194h-32v-121c0-31-8-49-39-48C34-167 62-67 57 0H25l-1-190h30c1 10-1 24 2 32 11-22 29-35 61-36" id="aw"/><path fill="#a9afb8" d="M100-194c63 0 86 42 84 106H49c0 40 14 67 53 68 26 1 43-12 49-29l28 8c-11 28-37 45-77 45C44 4 14-33 15-96c1-61 26-98 85-98zm52 81c6-60-76-77-97-28-3 7-6 17-6 28h103" id="ax"/><g id="f"><use transform="matrix(0.04248971193415638,0,0,0.04248971193415638,0,0)" xlink:href="#as"/><use transform="matrix(0.04248971193415638,0,0,0.04248971193415638,11.004835390946502,0)" xlink:href="#at"/><use transform="matrix(0.04248971193415638,0,0,0.04248971193415638,14.361522633744855,0)" xlink:href="#au"/><use transform="matrix(0.04248971193415638,0,0,0.04248971193415638,22.85946502057613,0)" xlink:href="#av"/><use transform="matrix(0.04248971193415638,0,0,0.04248971193415638,27.91574074074074,0)" xlink:href="#aw"/><use transform="matrix(0.04248971193415638,0,0,0.04248971193415638,36.413683127572014,0)" xlink:href="#ax"/><use transform="matrix(0.04248971193415638,0,0,0.04248971193415638,44.91162551440329,0)" xlink:href="#at"/></g><path fill="#a9afb8" d="M185-189c-5-48-123-54-124 2 14 75 158 14 163 119 3 78-121 87-175 55-17-10-28-26-33-46l33-7c5 56 141 63 141-1 0-78-155-14-162-118-5-82 145-84 179-34 5 7 8 16 11 25" id="ay"/><path fill="#a9afb8" d="M59-47c-2 24 18 29 38 22v24C64 9 27 4 27-40v-127H5v-23h24l9-43h21v43h35v23H59v120" id="az"/><path fill="#a9afb8" d="M101-234c-31-9-42 10-38 44h38v23H63V0H32v-167H5v-23h27c-7-52 17-82 69-68v24" id="aA"/><path fill="#a9afb8" d="M141-36C126-15 110 5 73 4 37 3 15-17 15-53c-1-64 63-63 125-63 3-35-9-54-41-54-24 1-41 7-42 31l-33-3c5-37 33-52 76-52 45 0 72 20 72 64v82c-1 20 7 32 28 27v20c-31 9-61-2-59-35zM48-53c0 20 12 33 32 33 41-3 63-29 60-74-43 2-92-5-92 41" id="aB"/><g id="g"><use transform="matrix(0.04248971193415638,0,0,0.04248971193415638,0,0)" xlink:href="#ay"/><use transform="matrix(0.04248971193415638,0,0,0.04248971193415638,10.19753086419753,0)" xlink:href="#az"/><use transform="matrix(0.04248971193415638,0,0,0.04248971193415638,14.446502057613166,0)" xlink:href="#ax"/><use transform="matrix(0.04248971193415638,0,0,0.04248971193415638,22.944444444444443,0)" xlink:href="#aA"/><use transform="matrix(0.04248971193415638,0,0,0.04248971193415638,27.19341563786008,0)" xlink:href="#aB"/><use transform="matrix(0.04248971193415638,0,0,0.04248971193415638,35.691358024691354,0)" xlink:href="#aw"/></g><path fill="#a9afb8" d="M32 76v-337h29V76H32" id="aC"/><use transform="matrix(0.04248971193415638,0,0,0.04248971193415638,0,0)" xlink:href="#aC" id="h"/><path fill="#a9afb8" d="M115-194c55 1 70 41 70 98S169 2 115 4C84 4 66-9 55-30l1 105H24l-1-265h31l2 30c10-21 28-34 59-34zm-8 174c40 0 45-34 45-75s-6-73-45-74c-42 0-51 32-51 76 0 43 10 73 51 73" id="aD"/><path fill="#a9afb8" d="M210-169c-67 3-38 105-44 169h-31v-121c0-29-5-50-35-48C34-165 62-65 56 0H25l-1-190h30c1 10-1 24 2 32 10-44 99-50 107 0 11-21 27-35 58-36 85-2 47 119 55 194h-31v-121c0-29-5-49-35-48" id="aE"/><path fill="#a9afb8" d="M115-194c53 0 69 39 70 98 0 66-23 100-70 100C84 3 66-7 56-30L54 0H23l1-261h32v101c10-23 28-34 59-34zm-8 174c40 0 45-34 45-75 0-40-5-75-45-74-42 0-51 32-51 76 0 43 10 73 51 73" id="aF"/><g id="i"><use transform="matrix(0.04248971193415638,0,0,0.04248971193415638,0,0)" xlink:href="#ay"/><use transform="matrix(0.04248971193415638,0,0,0.04248971193415638,10.19753086419753,0)" xlink:href="#ax"/><use transform="matrix(0.04248971193415638,0,0,0.04248971193415638,18.695473251028805,0)" xlink:href="#aD"/><use transform="matrix(0.04248971193415638,0,0,0.04248971193415638,27.193415637860078,0)" xlink:href="#az"/><use transform="matrix(0.04248971193415638,0,0,0.04248971193415638,31.442386831275712,0)" xlink:href="#ax"/><use transform="matrix(0.04248971193415638,0,0,0.04248971193415638,39.94032921810699,0)" xlink:href="#aE"/><use transform="matrix(0.04248971193415638,0,0,0.04248971193415638,52.64475308641975,0)" xlink:href="#aF"/><use transform="matrix(0.04248971193415638,0,0,0.04248971193415638,61.142695473251024,0)" xlink:href="#ax"/><use transform="matrix(0.04248971193415638,0,0,0.04248971193415638,69.6406378600823,0)" xlink:href="#av"/></g><path fill="#a9afb8" d="M101-251c82-7 93 87 43 132L82-64C71-53 59-42 53-27h129V0H18c2-99 128-94 128-182 0-28-16-43-45-43s-46 15-49 41l-32-3c6-41 34-60 81-64" id="aG"/><path fill="#a9afb8" d="M54-142c48-35 137-8 131 61C196 18 31 33 14-55l32-4c7 23 22 37 52 37 35-1 51-22 54-58 4-55-73-65-99-34H22l8-134h141v27H59" id="aH"/><path fill="#a9afb8" d="M68-38c1 34 0 65-14 84H32c9-13 17-26 17-46H33v-38h35" id="aI"/><g id="j"><use transform="matrix(0.04248971193415638,0,0,0.04248971193415638,0,0)" xlink:href="#aG"/><use transform="matrix(0.04248971193415638,0,0,0.04248971193415638,8.497942386831275,0)" xlink:href="#aH"/><use transform="matrix(0.04248971193415638,0,0,0.04248971193415638,16.99588477366255,0)" xlink:href="#aI"/></g><path fill="#a9afb8" d="M101-251c68 0 85 55 85 127S166 4 100 4C33 4 14-52 14-124c0-73 17-127 87-127zm-1 229c47 0 54-49 54-102s-4-102-53-102c-51 0-55 48-55 102 0 53 5 102 54 102" id="aJ"/><path fill="#a9afb8" d="M126-127c33 6 58 20 58 59 0 88-139 92-164 29-3-8-5-16-6-25l32-3c6 27 21 44 54 44 32 0 52-15 52-46 0-38-36-46-79-43v-28c39 1 72-4 72-42 0-27-17-43-46-43-28 0-47 15-49 41l-32-3c6-42 35-63 81-64 48-1 79 21 79 65 0 36-21 52-52 59" id="aK"/><g id="k"><use transform="matrix(0.04248971193415638,0,0,0.04248971193415638,0,0)" xlink:href="#aG"/><use transform="matrix(0.04248971193415638,0,0,0.04248971193415638,8.497942386831275,0)" xlink:href="#aJ"/><use transform="matrix(0.04248971193415638,0,0,0.04248971193415638,16.99588477366255,0)" xlink:href="#aG"/><use transform="matrix(0.04248971193415638,0,0,0.04248971193415638,25.493827160493822,0)" xlink:href="#aK"/></g><path d="M24-248c120-7 223 5 221 122C244-46 201 0 124 0H24v-248zM76-40c74 7 117-18 117-86 0-67-45-88-117-82v168" id="aL"/><path d="M25-224v-37h50v37H25zM25 0v-190h50V0H25" id="aM"/><path d="M133-34C117-15 103 5 69 4 32 3 11-16 11-54c-1-60 55-63 116-61 1-26-3-47-28-47-18 1-26 9-28 27l-52-2c7-38 36-58 82-57s74 22 75 68l1 82c-1 14 12 18 25 15v27c-30 8-71 5-69-32zm-48 3c29 0 43-24 42-57-32 0-66-3-65 30 0 17 8 27 23 27" id="aN"/><path d="M195-6C206 82 75 100 31 46c-4-6-6-13-8-21l49-6c3 16 16 24 34 25 40 0 42-37 40-79-11 22-30 35-61 35-53 0-70-43-70-97 0-56 18-96 73-97 30 0 46 14 59 34l2-30h47zm-90-29c32 0 41-27 41-63 0-35-9-62-40-62-32 0-39 29-40 63 0 36 9 62 39 62" id="aO"/><path d="M135-150c-39-12-60 13-60 57V0H25l-1-190h47c2 13-1 29 3 40 6-28 27-53 61-41v41" id="aP"/><path d="M220-157c-53 9-28 100-34 157h-49v-107c1-27-5-49-29-50C55-147 81-57 75 0H25l-1-190h47c2 12-1 28 3 38 10-53 101-56 108 0 13-22 24-43 59-42 82 1 51 116 57 194h-49v-107c-1-25-5-48-29-50" id="aQ"/><g id="l"><use transform="matrix(0.05,0,0,0.05,0,0)" xlink:href="#aL"/><use transform="matrix(0.05,0,0,0.05,12.950000000000001,0)" xlink:href="#aM"/><use transform="matrix(0.05,0,0,0.05,17.950000000000003,0)" xlink:href="#aN"/><use transform="matrix(0.05,0,0,0.05,27.950000000000003,0)" xlink:href="#aO"/><use transform="matrix(0.05,0,0,0.05,38.900000000000006,0)" xlink:href="#aP"/><use transform="matrix(0.05,0,0,0.05,45.900000000000006,0)" xlink:href="#aN"/><use transform="matrix(0.05,0,0,0.05,55.900000000000006,0)" xlink:href="#aQ"/></g><path d="M195 0l-88-114-31 24V0H24v-248h52v113l112-113h60L142-143 257 0h-62" id="aR"/><path d="M185-48c-13 30-37 53-82 52C43 2 14-33 14-96s30-98 90-98c62 0 83 45 84 108H66c0 31 8 55 39 56 18 0 30-7 34-22zm-45-69c5-46-57-63-70-21-2 6-4 13-4 21h74" id="aS"/><path d="M123 10C108 53 80 86 19 72V37c35 8 53-11 59-39L3-190h52l48 148c12-52 28-100 44-148h51" id="aT"/><g id="m"><use transform="matrix(0.05,0,0,0.05,0,0)" xlink:href="#aR"/><use transform="matrix(0.05,0,0,0.05,12.950000000000001,0)" xlink:href="#aS"/><use transform="matrix(0.05,0,0,0.05,22.950000000000003,0)" xlink:href="#aT"/></g><path d="M30 0v-248h187v28H63v79h144v27H63v87h162V0H30" id="aU"/><path d="M141 0L90-78 38 0H4l68-98-65-92h35l48 74 47-74h35l-64 92 68 98h-35" id="aV"/><path d="M24-231v-30h32v30H24zM24 0v-190h32V0H24" id="aW"/><path d="M135-143c-3-34-86-38-87 0 15 53 115 12 119 90S17 21 10-45l28-5c4 36 97 45 98 0-10-56-113-15-118-90-4-57 82-63 122-42 12 7 21 19 24 35" id="aX"/><path d="M59-47c-2 24 18 29 38 22v24C64 9 27 4 27-40v-127H5v-23h24l9-43h21v43h35v23H59v120" id="aY"/><path d="M117-194c89-4 53 116 60 194h-32v-121c0-31-8-49-39-48C34-167 62-67 57 0H25l-1-190h30c1 10-1 24 2 32 11-22 29-35 61-36" id="aZ"/><path d="M177-190C167-65 218 103 67 71c-23-6-38-20-44-43l32-5c15 47 100 32 89-28v-30C133-14 115 1 83 1 29 1 15-40 15-95c0-56 16-97 71-98 29-1 48 16 59 35 1-10 0-23 2-32h30zM94-22c36 0 50-32 50-73 0-42-14-75-50-75-39 0-46 34-46 75s6 73 46 73" id="ba"/><g id="n"><use transform="matrix(0.03888888888888889,0,0,0.03888888888888889,0,0)" xlink:href="#aU"/><use transform="matrix(0.03888888888888889,0,0,0.03888888888888889,9.333333333333334,0)" xlink:href="#aV"/><use transform="matrix(0.03888888888888889,0,0,0.03888888888888889,16.333333333333336,0)" xlink:href="#aW"/><use transform="matrix(0.03888888888888889,0,0,0.03888888888888889,19.40555555555556,0)" xlink:href="#aX"/><use transform="matrix(0.03888888888888889,0,0,0.03888888888888889,26.405555555555562,0)" xlink:href="#aY"/><use transform="matrix(0.03888888888888889,0,0,0.03888888888888889,30.294444444444448,0)" xlink:href="#aW"/><use transform="matrix(0.03888888888888889,0,0,0.03888888888888889,33.36666666666667,0)" xlink:href="#aZ"/><use transform="matrix(0.03888888888888889,0,0,0.03888888888888889,41.144444444444446,0)" xlink:href="#ba"/></g><path d="M141-36C126-15 110 5 73 4 37 3 15-17 15-53c-1-64 63-63 125-63 3-35-9-54-41-54-24 1-41 7-42 31l-33-3c5-37 33-52 76-52 45 0 72 20 72 64v82c-1 20 7 32 28 27v20c-31 9-61-2-59-35zM48-53c0 20 12 33 32 33 41-3 63-29 60-74-43 2-92-5-92 41" id="bb"/><path d="M115-194c53 0 69 39 70 98 0 66-23 100-70 100C84 3 66-7 56-30L54 0H23l1-261h32v101c10-23 28-34 59-34zm-8 174c40 0 45-34 45-75 0-40-5-75-45-74-42 0-51 32-51 76 0 43 10 73 51 73" id="bc"/><path d="M24 0v-261h32V0H24" id="bd"/><path d="M100-194c63 0 86 42 84 106H49c0 40 14 67 53 68 26 1 43-12 49-29l28 8c-11 28-37 45-77 45C44 4 14-33 15-96c1-61 26-98 85-98zm52 81c6-60-76-77-97-28-3 7-6 17-6 28h103" id="be"/><g id="o"><use transform="matrix(0.03888888888888889,0,0,0.03888888888888889,0,0)" xlink:href="#aY"/><use transform="matrix(0.03888888888888889,0,0,0.03888888888888889,3.888888888888889,0)" xlink:href="#bb"/><use transform="matrix(0.03888888888888889,0,0,0.03888888888888889,11.666666666666666,0)" xlink:href="#bc"/><use transform="matrix(0.03888888888888889,0,0,0.03888888888888889,19.444444444444443,0)" xlink:href="#bd"/><use transform="matrix(0.03888888888888889,0,0,0.03888888888888889,22.516666666666666,0)" xlink:href="#be"/></g><path d="M30-248c87 1 191-15 191 75 0 78-77 80-158 76V0H30v-248zm33 125c57 0 124 11 124-50 0-59-68-47-124-48v98" id="bf"/><path d="M114-163C36-179 61-72 57 0H25l-1-190h30c1 12-1 29 2 39 6-27 23-49 58-41v29" id="bg"/><path d="M100-194c62-1 85 37 85 99 1 63-27 99-86 99S16-35 15-95c0-66 28-99 85-99zM99-20c44 1 53-31 53-75 0-43-8-75-51-75s-53 32-53 75 10 74 51 75" id="bh"/><path d="M115-194c55 1 70 41 70 98S169 2 115 4C84 4 66-9 55-30l1 105H24l-1-265h31l2 30c10-21 28-34 59-34zm-8 174c40 0 45-34 45-75s-6-73-45-74c-42 0-51 32-51 76 0 43 10 73 51 73" id="bi"/><path d="M85-194c31 0 48 13 60 33l-1-100h32l1 261h-30c-2-10 0-23-3-31C134-8 116 4 85 4 32 4 16-35 15-94c0-66 23-100 70-100zm9 24c-40 0-46 34-46 75 0 40 6 74 45 74 42 0 51-32 51-76 0-42-9-74-50-73" id="bj"/><g id="p"><use transform="matrix(0.03888888888888889,0,0,0.03888888888888889,0,0)" xlink:href="#bf"/><use transform="matrix(0.03888888888888889,0,0,0.03888888888888889,9.333333333333334,0)" xlink:href="#bg"/><use transform="matrix(0.03888888888888889,0,0,0.03888888888888889,13.961111111111112,0)" xlink:href="#bh"/><use transform="matrix(0.03888888888888889,0,0,0.03888888888888889,21.73888888888889,0)" xlink:href="#bi"/><use transform="matrix(0.03888888888888889,0,0,0.03888888888888889,29.516666666666666,0)" xlink:href="#bh"/><use transform="matrix(0.03888888888888889,0,0,0.03888888888888889,37.294444444444444,0)" xlink:href="#aX"/><use transform="matrix(0.03888888888888889,0,0,0.03888888888888889,44.294444444444444,0)" xlink:href="#be"/><use transform="matrix(0.03888888888888889,0,0,0.03888888888888889,52.07222222222222,0)" xlink:href="#bj"/></g><path fill="#3a414a" d="M30-248c87 1 191-15 191 75 0 78-77 80-158 76V0H30v-248zm33 125c57 0 124 11 124-50 0-59-68-47-124-48v98" id="bk"/><path fill="#3a414a" d="M114-163C36-179 61-72 57 0H25l-1-190h30c1 12-1 29 2 39 6-27 23-49 58-41v29" id="bl"/><path fill="#3a414a" d="M100-194c62-1 85 37 85 99 1 63-27 99-86 99S16-35 15-95c0-66 28-99 85-99zM99-20c44 1 53-31 53-75 0-43-8-75-51-75s-53 32-53 75 10 74 51 75" id="bm"/><path fill="#3a414a" d="M115-194c53 0 69 39 70 98 0 66-23 100-70 100C84 3 66-7 56-30L54 0H23l1-261h32v101c10-23 28-34 59-34zm-8 174c40 0 45-34 45-75 0-40-5-75-45-74-42 0-51 32-51 76 0 43 10 73 51 73" id="bn"/><path fill="#3a414a" d="M24 0v-261h32V0H24" id="bo"/><path fill="#3a414a" d="M100-194c63 0 86 42 84 106H49c0 40 14 67 53 68 26 1 43-12 49-29l28 8c-11 28-37 45-77 45C44 4 14-33 15-96c1-61 26-98 85-98zm52 81c6-60-76-77-97-28-3 7-6 17-6 28h103" id="bp"/><path fill="#3a414a" d="M210-169c-67 3-38 105-44 169h-31v-121c0-29-5-50-35-48C34-165 62-65 56 0H25l-1-190h30c1 10-1 24 2 32 10-44 99-50 107 0 11-21 27-35 58-36 85-2 47 119 55 194h-31v-121c0-29-5-49-35-48" id="bq"/><g id="q"><use transform="matrix(0.05,0,0,0.05,0,0)" xlink:href="#bk"/><use transform="matrix(0.05,0,0,0.05,12,0)" xlink:href="#bl"/><use transform="matrix(0.05,0,0,0.05,17.95,0)" xlink:href="#bm"/><use transform="matrix(0.05,0,0,0.05,27.950000000000003,0)" xlink:href="#bn"/><use transform="matrix(0.05,0,0,0.05,37.95,0)" xlink:href="#bo"/><use transform="matrix(0.05,0,0,0.05,41.900000000000006,0)" xlink:href="#bp"/><use transform="matrix(0.05,0,0,0.05,51.900000000000006,0)" xlink:href="#bq"/></g><path fill="#3a414a" d="M190 0L58-211 59 0H30v-248h39L202-35l-2-213h31V0h-41" id="br"/><path fill="#3a414a" d="M140-251c81 0 123 46 123 126C263-46 219 4 140 4 59 4 17-45 17-125s42-126 123-126zm0 227c63 0 89-41 89-101s-29-99-89-99c-61 0-89 39-89 99S79-25 140-24" id="bs"/><path fill="#3a414a" d="M127-220V0H93v-220H8v-28h204v28h-85" id="bt"/><g id="r"><use transform="matrix(0.05,0,0,0.05,0,0)" xlink:href="#br"/><use transform="matrix(0.05,0,0,0.05,12.950000000000001,0)" xlink:href="#bs"/><use transform="matrix(0.05,0,0,0.05,26.950000000000003,0)" xlink:href="#bt"/></g><path fill="#3a414a" d="M232-93c-1 65-40 97-104 97C67 4 28-28 28-90v-158h33c8 89-33 224 67 224 102 0 64-133 71-224h33v155" id="bu"/><path fill="#3a414a" d="M30 0v-248h33v221h125V0H30" id="bv"/><g id="s"><use transform="matrix(0.05,0,0,0.05,0,0)" xlink:href="#br"/><use transform="matrix(0.05,0,0,0.05,12.950000000000001,0)" xlink:href="#bu"/><use transform="matrix(0.05,0,0,0.05,25.900000000000002,0)" xlink:href="#bv"/><use transform="matrix(0.05,0,0,0.05,35.900000000000006,0)" xlink:href="#bv"/></g><path fill="#3a414a" d="M117-194c89-4 53 116 60 194h-32v-121c0-31-8-49-39-48C34-167 62-67 57 0H25l-1-190h30c1 10-1 24 2 32 11-22 29-35 61-36" id="bw"/><path fill="#3a414a" d="M141-36C126-15 110 5 73 4 37 3 15-17 15-53c-1-64 63-63 125-63 3-35-9-54-41-54-24 1-41 7-42 31l-33-3c5-37 33-52 76-52 45 0 72 20 72 64v82c-1 20 7 32 28 27v20c-31 9-61-2-59-35zM48-53c0 20 12 33 32 33 41-3 63-29 60-74-43 2-92-5-92 41" id="bx"/><g id="t"><use transform="matrix(0.05,0,0,0.05,0,0)" xlink:href="#bw"/><use transform="matrix(0.05,0,0,0.05,10,0)" xlink:href="#bx"/><use transform="matrix(0.05,0,0,0.05,20,0)" xlink:href="#bq"/><use transform="matrix(0.05,0,0,0.05,34.95,0)" xlink:href="#bp"/></g><path fill="#3a414a" d="M108 0H70L1-190h34L89-25l56-165h34" id="by"/><path fill="#3a414a" d="M96-169c-40 0-48 33-48 73s9 75 48 75c24 0 41-14 43-38l32 2c-6 37-31 61-74 61-59 0-76-41-82-99-10-93 101-131 147-64 4 7 5 14 7 22l-32 3c-4-21-16-35-41-35" id="bz"/><path fill="#3a414a" d="M106-169C34-169 62-67 57 0H25v-261h32l-1 103c12-21 28-36 61-36 89 0 53 116 60 194h-32v-121c2-32-8-49-39-48" id="bA"/><path fill="#3a414a" d="M87 75C49 33 22-17 22-94c0-76 28-126 65-167h31c-38 41-64 92-64 168S80 34 118 75H87" id="bB"/><path fill="#3a414a" d="M27 0v-27h64v-190l-56 39v-29l58-41h29v221h61V0H27" id="bC"/><path fill="#3a414a" d="M101-251c68 0 85 55 85 127S166 4 100 4C33 4 14-52 14-124c0-73 17-127 87-127zm-1 229c47 0 54-49 54-102s-4-102-53-102c-51 0-55 48-55 102 0 53 5 102 54 102" id="bD"/><path fill="#3a414a" d="M33-261c38 41 65 92 65 168S71 34 33 75H2C39 34 66-17 66-93S39-220 2-261h31" id="bE"/><g id="u"><use transform="matrix(0.05,0,0,0.05,0,0)" xlink:href="#by"/><use transform="matrix(0.05,0,0,0.05,9,0)" xlink:href="#bx"/><use transform="matrix(0.05,0,0,0.05,19,0)" xlink:href="#bl"/><use transform="matrix(0.05,0,0,0.05,24.95,0)" xlink:href="#bz"/><use transform="matrix(0.05,0,0,0.05,33.95,0)" xlink:href="#bA"/><use transform="matrix(0.05,0,0,0.05,43.95,0)" xlink:href="#bx"/><use transform="matrix(0.05,0,0,0.05,53.95,0)" xlink:href="#bl"/><use transform="matrix(0.05,0,0,0.05,59.900000000000006,0)" xlink:href="#bB"/><use transform="matrix(0.05,0,0,0.05,65.85000000000001,0)" xlink:href="#bC"/><use transform="matrix(0.05,0,0,0.05,75.85000000000001,0)" xlink:href="#bD"/><use transform="matrix(0.05,0,0,0.05,85.85000000000001,0)" xlink:href="#bD"/><use transform="matrix(0.05,0,0,0.05,95.85000000000001,0)" xlink:href="#bE"/></g><path fill="#3a414a" d="M115-194c55 1 70 41 70 98S169 2 115 4C84 4 66-9 55-30l1 105H24l-1-265h31l2 30c10-21 28-34 59-34zm-8 174c40 0 45-34 45-75s-6-73-45-74c-42 0-51 32-51 76 0 43 10 73 51 73" id="bF"/><path fill="#3a414a" d="M-5 72V49h209v23H-5" id="bG"/><path fill="#3a414a" d="M24-231v-30h32v30H24zM24 0v-190h32V0H24" id="bH"/><path fill="#3a414a" d="M143 0L79-87 56-68V0H24v-261h32v163l83-92h37l-77 82L181 0h-38" id="bI"/><g id="v"><use transform="matrix(0.05,0,0,0.05,0,0)" xlink:href="#bF"/><use transform="matrix(0.05,0,0,0.05,10,0)" xlink:href="#bl"/><use transform="matrix(0.05,0,0,0.05,15.949999999999998,0)" xlink:href="#bm"/><use transform="matrix(0.05,0,0,0.05,25.950000000000003,0)" xlink:href="#bn"/><use transform="matrix(0.05,0,0,0.05,35.95,0)" xlink:href="#bo"/><use transform="matrix(0.05,0,0,0.05,39.900000000000006,0)" xlink:href="#bp"/><use transform="matrix(0.05,0,0,0.05,49.900000000000006,0)" xlink:href="#bq"/><use transform="matrix(0.05,0,0,0.05,64.85000000000001,0)" xlink:href="#bG"/><use transform="matrix(0.05,0,0,0.05,74.85000000000001,0)" xlink:href="#bo"/><use transform="matrix(0.05,0,0,0.05,78.80000000000001,0)" xlink:href="#bH"/><use transform="matrix(0.05,0,0,0.05,82.75000000000001,0)" xlink:href="#bw"/><use transform="matrix(0.05,0,0,0.05,92.75000000000001,0)" xlink:href="#bI"/></g><path fill="#3a414a" d="M101-251c82-7 93 87 43 132L82-64C71-53 59-42 53-27h129V0H18c2-99 128-94 128-182 0-28-16-43-45-43s-46 15-49 41l-32-3c6-41 34-60 81-64" id="bJ"/><g id="w"><use transform="matrix(0.05,0,0,0.05,0,0)" xlink:href="#by"/><use transform="matrix(0.05,0,0,0.05,9,0)" xlink:href="#bx"/><use transform="matrix(0.05,0,0,0.05,19,0)" xlink:href="#bl"/><use transform="matrix(0.05,0,0,0.05,24.95,0)" xlink:href="#bz"/><use transform="matrix(0.05,0,0,0.05,33.95,0)" xlink:href="#bA"/><use transform="matrix(0.05,0,0,0.05,43.95,0)" xlink:href="#bx"/><use transform="matrix(0.05,0,0,0.05,53.95,0)" xlink:href="#bl"/><use transform="matrix(0.05,0,0,0.05,59.900000000000006,0)" xlink:href="#bB"/><use transform="matrix(0.05,0,0,0.05,65.85000000000001,0)" xlink:href="#bJ"/><use transform="matrix(0.05,0,0,0.05,75.85000000000001,0)" xlink:href="#bD"/><use transform="matrix(0.05,0,0,0.05,85.85000000000001,0)" xlink:href="#bD"/><use transform="matrix(0.05,0,0,0.05,95.85000000000001,0)" xlink:href="#bE"/></g><path fill="#3a414a" d="M135-143c-3-34-86-38-87 0 15 53 115 12 119 90S17 21 10-45l28-5c4 36 97 45 98 0-10-56-113-15-118-90-4-57 82-63 122-42 12 7 21 19 24 35" id="bK"/><path fill="#3a414a" d="M84 4C-5 8 30-112 23-190h32v120c0 31 7 50 39 49 72-2 45-101 50-169h31l1 190h-30c-1-10 1-25-2-33-11 22-28 36-60 37" id="bL"/><path fill="#3a414a" d="M59-47c-2 24 18 29 38 22v24C64 9 27 4 27-40v-127H5v-23h24l9-43h21v43h35v23H59v120" id="bM"/><g id="x"><use transform="matrix(0.05,0,0,0.05,0,0)" xlink:href="#bK"/><use transform="matrix(0.05,0,0,0.05,9,0)" xlink:href="#bm"/><use transform="matrix(0.05,0,0,0.05,19,0)" xlink:href="#bo"/><use transform="matrix(0.05,0,0,0.05,22.95,0)" xlink:href="#bL"/><use transform="matrix(0.05,0,0,0.05,32.95,0)" xlink:href="#bM"/><use transform="matrix(0.05,0,0,0.05,37.95,0)" xlink:href="#bH"/><use transform="matrix(0.05,0,0,0.05,41.900000000000006,0)" xlink:href="#bm"/><use transform="matrix(0.05,0,0,0.05,51.900000000000006,0)" xlink:href="#bw"/><use transform="matrix(0.05,0,0,0.05,61.900000000000006,0)" xlink:href="#bG"/><use transform="matrix(0.05,0,0,0.05,71.9,0)" xlink:href="#bo"/><use transform="matrix(0.05,0,0,0.05,75.85000000000001,0)" xlink:href="#bH"/><use transform="matrix(0.05,0,0,0.05,79.80000000000001,0)" xlink:href="#bw"/><use transform="matrix(0.05,0,0,0.05,89.80000000000001,0)" xlink:href="#bI"/></g><g id="y"><use transform="matrix(0.05,0,0,0.05,0,0)" xlink:href="#bF"/><use transform="matrix(0.05,0,0,0.05,10,0)" xlink:href="#bI"/></g><path fill="#3a414a" d="M85-194c31 0 48 13 60 33l-1-100h32l1 261h-30c-2-10 0-23-3-31C134-8 116 4 85 4 32 4 16-35 15-94c0-66 23-100 70-100zm9 24c-40 0-46 34-46 75 0 40 6 74 45 74 42 0 51-32 51-76 0-42-9-74-50-73" id="bN"/><g id="z"><use transform="matrix(0.05,0,0,0.05,0,0)" xlink:href="#bH"/><use transform="matrix(0.05,0,0,0.05,3.95,0)" xlink:href="#bN"/></g><g id="A"><use transform="matrix(0.05,0,0,0.05,0,0)" xlink:href="#bH"/><use transform="matrix(0.05,0,0,0.05,3.95,0)" xlink:href="#bw"/><use transform="matrix(0.05,0,0,0.05,13.949999999999998,0)" xlink:href="#bM"/></g><path fill="#3a414a" d="M101-234c-31-9-42 10-38 44h38v23H63V0H32v-167H5v-23h27c-7-52 17-82 69-68v24" id="bO"/><g id="B"><use transform="matrix(0.05,0,0,0.05,0,0)" xlink:href="#bO"/><use transform="matrix(0.05,0,0,0.05,5,0)" xlink:href="#bI"/></g><g id="C"><use transform="matrix(0.05,0,0,0.05,0,0)" xlink:href="#bx"/><use transform="matrix(0.05,0,0,0.05,10,0)" xlink:href="#bL"/><use transform="matrix(0.05,0,0,0.05,20,0)" xlink:href="#bM"/><use transform="matrix(0.05,0,0,0.05,25,0)" xlink:href="#bA"/><use transform="matrix(0.05,0,0,0.05,35,0)" xlink:href="#bm"/><use transform="matrix(0.05,0,0,0.05,45,0)" xlink:href="#bl"/><use transform="matrix(0.05,0,0,0.05,50.95,0)" xlink:href="#bG"/><use transform="matrix(0.05,0,0,0.05,60.95,0)" xlink:href="#bH"/><use transform="matrix(0.05,0,0,0.05,64.9,0)" xlink:href="#bN"/></g><path fill="#3a414a" d="M177-190C167-65 218 103 67 71c-23-6-38-20-44-43l32-5c15 47 100 32 89-28v-30C133-14 115 1 83 1 29 1 15-40 15-95c0-56 16-97 71-98 29-1 48 16 59 35 1-10 0-23 2-32h30zM94-22c36 0 50-32 50-73 0-42-14-75-50-75-39 0-46 34-46 75s6 73 46 73" id="bP"/><g id="D"><use transform="matrix(0.05,0,0,0.05,0,0)" xlink:href="#bP"/><use transform="matrix(0.05,0,0,0.05,10,0)" xlink:href="#bl"/><use transform="matrix(0.05,0,0,0.05,15.949999999999998,0)" xlink:href="#bm"/><use transform="matrix(0.05,0,0,0.05,25.950000000000003,0)" xlink:href="#bL"/><use transform="matrix(0.05,0,0,0.05,35.95,0)" xlink:href="#bF"/><use transform="matrix(0.05,0,0,0.05,45.95,0)" xlink:href="#bG"/><use transform="matrix(0.05,0,0,0.05,55.95,0)" xlink:href="#bH"/><use transform="matrix(0.05,0,0,0.05,59.900000000000006,0)" xlink:href="#bN"/></g><g id="E"><use transform="matrix(0.05,0,0,0.05,0,0)" xlink:href="#bO"/><use transform="matrix(0.05,0,0,0.05,5,0)" xlink:href="#bI"/></g><path fill="#3a414a" d="M206 0h-36l-40-164L89 0H53L-1-190h32L70-26l43-164h34l41 164 42-164h31" id="bQ"/><g id="F"><use transform="matrix(0.05,0,0,0.05,0,0)" xlink:href="#bQ"/><use transform="matrix(0.05,0,0,0.05,12.950000000000001,0)" xlink:href="#bp"/><use transform="matrix(0.05,0,0,0.05,22.950000000000003,0)" xlink:href="#bn"/><use transform="matrix(0.05,0,0,0.05,32.95,0)" xlink:href="#bK"/><use transform="matrix(0.05,0,0,0.05,41.95,0)" xlink:href="#bH"/><use transform="matrix(0.05,0,0,0.05,45.900000000000006,0)" xlink:href="#bM"/><use transform="matrix(0.05,0,0,0.05,50.900000000000006,0)" xlink:href="#bp"/><use transform="matrix(0.05,0,0,0.05,60.900000000000006,0)" xlink:href="#bG"/><use transform="matrix(0.05,0,0,0.05,70.9,0)" xlink:href="#bH"/><use transform="matrix(0.05,0,0,0.05,74.85000000000001,0)" xlink:href="#bN"/></g><g id="G"><use transform="matrix(0.05,0,0,0.05,0,0)" xlink:href="#bH"/><use transform="matrix(0.05,0,0,0.05,3.95,0)" xlink:href="#bw"/><use transform="matrix(0.05,0,0,0.05,13.949999999999998,0)" xlink:href="#bM"/></g><path fill="#3a414a" d="M205 0l-28-72H64L36 0H1l101-248h38L239 0h-34zm-38-99l-47-123c-12 45-31 82-46 123h93" id="bR"/><g id="H"><use transform="matrix(0.05,0,0,0.05,0,0)" xlink:href="#bR"/><use transform="matrix(0.05,0,0,0.05,12,0)" xlink:href="#bL"/><use transform="matrix(0.05,0,0,0.05,22,0)" xlink:href="#bM"/><use transform="matrix(0.05,0,0,0.05,27,0)" xlink:href="#bA"/><use transform="matrix(0.05,0,0,0.05,37,0)" xlink:href="#bm"/><use transform="matrix(0.05,0,0,0.05,47,0)" xlink:href="#bl"/></g><g id="I"><use transform="matrix(0.05,0,0,0.05,0,0)" xlink:href="#bw"/><use transform="matrix(0.05,0,0,0.05,10,0)" xlink:href="#bm"/><use transform="matrix(0.05,0,0,0.05,20,0)" xlink:href="#bM"/></g><g id="J"><use transform="matrix(0.05,0,0,0.05,0,0)" xlink:href="#bw"/><use transform="matrix(0.05,0,0,0.05,10,0)" xlink:href="#bL"/><use transform="matrix(0.05,0,0,0.05,20,0)" xlink:href="#bo"/><use transform="matrix(0.05,0,0,0.05,23.95,0)" xlink:href="#bo"/></g><g id="K"><use transform="matrix(0.05,0,0,0.05,0,0)" xlink:href="#bt"/><use transform="matrix(0.05,0,0,0.05,8.950000000000001,0)" xlink:href="#bx"/><use transform="matrix(0.05,0,0,0.05,18.950000000000003,0)" xlink:href="#bP"/></g><path fill="#3a414a" d="M54-142c48-35 137-8 131 61C196 18 31 33 14-55l32-4c7 23 22 37 52 37 35-1 51-22 54-58 4-55-73-65-99-34H22l8-134h141v27H59" id="bS"/><g id="L"><use transform="matrix(0.05,0,0,0.05,0,0)" xlink:href="#by"/><use transform="matrix(0.05,0,0,0.05,9,0)" xlink:href="#bx"/><use transform="matrix(0.05,0,0,0.05,19,0)" xlink:href="#bl"/><use transform="matrix(0.05,0,0,0.05,24.95,0)" xlink:href="#bz"/><use transform="matrix(0.05,0,0,0.05,33.95,0)" xlink:href="#bA"/><use transform="matrix(0.05,0,0,0.05,43.95,0)" xlink:href="#bx"/><use transform="matrix(0.05,0,0,0.05,53.95,0)" xlink:href="#bl"/><use transform="matrix(0.05,0,0,0.05,59.900000000000006,0)" xlink:href="#bB"/><use transform="matrix(0.05,0,0,0.05,65.85000000000001,0)" xlink:href="#bS"/><use transform="matrix(0.05,0,0,0.05,75.85000000000001,0)" xlink:href="#bD"/><use transform="matrix(0.05,0,0,0.05,85.85000000000001,0)" xlink:href="#bE"/></g><g id="M"><use transform="matrix(0.05,0,0,0.05,0,0)" xlink:href="#bF"/><use transform="matrix(0.05,0,0,0.05,10,0)" xlink:href="#bl"/><use transform="matrix(0.05,0,0,0.05,15.949999999999998,0)" xlink:href="#bm"/><use transform="matrix(0.05,0,0,0.05,25.950000000000003,0)" xlink:href="#bn"/><use transform="matrix(0.05,0,0,0.05,35.95,0)" xlink:href="#bo"/><use transform="matrix(0.05,0,0,0.05,39.900000000000006,0)" xlink:href="#bp"/><use transform="matrix(0.05,0,0,0.05,49.900000000000006,0)" xlink:href="#bq"/><use transform="matrix(0.05,0,0,0.05,64.85000000000001,0)" xlink:href="#bG"/><use transform="matrix(0.05,0,0,0.05,74.85000000000001,0)" xlink:href="#bM"/><use transform="matrix(0.05,0,0,0.05,79.85000000000001,0)" xlink:href="#bx"/><use transform="matrix(0.05,0,0,0.05,89.85000000000001,0)" xlink:href="#bP"/></g><g id="N"><use transform="matrix(0.05,0,0,0.05,0,0)" xlink:href="#bM"/><use transform="matrix(0.05,0,0,0.05,5,0)" xlink:href="#bx"/><use transform="matrix(0.05,0,0,0.05,15,0)" xlink:href="#bP"/><use transform="matrix(0.05,0,0,0.05,25,0)" xlink:href="#bG"/><use transform="matrix(0.05,0,0,0.05,35,0)" xlink:href="#bH"/><use transform="matrix(0.05,0,0,0.05,38.95,0)" xlink:href="#bN"/></g><g id="O"><use transform="matrix(0.05,0,0,0.05,0,0)" xlink:href="#bF"/><use transform="matrix(0.05,0,0,0.05,10,0)" xlink:href="#bl"/><use transform="matrix(0.05,0,0,0.05,15.949999999999998,0)" xlink:href="#bm"/><use transform="matrix(0.05,0,0,0.05,25.950000000000003,0)" xlink:href="#bn"/><use transform="matrix(0.05,0,0,0.05,35.95,0)" xlink:href="#bo"/><use transform="matrix(0.05,0,0,0.05,39.900000000000006,0)" xlink:href="#bp"/><use transform="matrix(0.05,0,0,0.05,49.900000000000006,0)" xlink:href="#bq"/><use transform="matrix(0.05,0,0,0.05,64.85000000000001,0)" xlink:href="#bG"/><use transform="matrix(0.05,0,0,0.05,74.85000000000001,0)" xlink:href="#bH"/><use transform="matrix(0.05,0,0,0.05,78.80000000000001,0)" xlink:href="#bN"/></g><path fill="#3a414a" d="M143 4C61 4 22-44 18-125c-5-107 100-154 193-111 17 8 29 25 37 43l-32 9c-13-25-37-40-76-40-61 0-88 39-88 99 0 61 29 100 91 101 35 0 62-11 79-27v-45h-74v-28h105v86C228-13 192 4 143 4" id="bT"/><g id="P"><use transform="matrix(0.05,0,0,0.05,0,0)" xlink:href="#bT"/><use transform="matrix(0.05,0,0,0.05,14,0)" xlink:href="#bl"/><use transform="matrix(0.05,0,0,0.05,19.95,0)" xlink:href="#bm"/><use transform="matrix(0.05,0,0,0.05,29.950000000000003,0)" xlink:href="#bL"/><use transform="matrix(0.05,0,0,0.05,39.95,0)" xlink:href="#bF"/></g><g id="Q"><use transform="matrix(0.05,0,0,0.05,0,0)" xlink:href="#by"/><use transform="matrix(0.05,0,0,0.05,9,0)" xlink:href="#bx"/><use transform="matrix(0.05,0,0,0.05,19,0)" xlink:href="#bl"/><use transform="matrix(0.05,0,0,0.05,24.95,0)" xlink:href="#bz"/><use transform="matrix(0.05,0,0,0.05,33.95,0)" xlink:href="#bA"/><use transform="matrix(0.05,0,0,0.05,43.95,0)" xlink:href="#bx"/><use transform="matrix(0.05,0,0,0.05,53.95,0)" xlink:href="#bl"/><use transform="matrix(0.05,0,0,0.05,59.900000000000006,0)" xlink:href="#bB"/><use transform="matrix(0.05,0,0,0.05,65.85000000000001,0)" xlink:href="#bJ"/><use transform="matrix(0.05,0,0,0.05,75.85000000000001,0)" xlink:href="#bD"/><use transform="matrix(0.05,0,0,0.05,85.85000000000001,0)" xlink:href="#bE"/></g><path fill="#3a414a" d="M266 0h-40l-56-210L115 0H75L2-248h35L96-30l15-64 43-154h32l59 218 59-218h35" id="bU"/><g id="R"><use transform="matrix(0.05,0,0,0.05,0,0)" xlink:href="#bU"/><use transform="matrix(0.05,0,0,0.05,16.599999999999998,0)" xlink:href="#bp"/><use transform="matrix(0.05,0,0,0.05,26.599999999999994,0)" xlink:href="#bn"/><use transform="matrix(0.05,0,0,0.05,36.599999999999994,0)" xlink:href="#bK"/><use transform="matrix(0.05,0,0,0.05,45.599999999999994,0)" xlink:href="#bH"/><use transform="matrix(0.05,0,0,0.05,49.55,0)" xlink:href="#bM"/><use transform="matrix(0.05,0,0,0.05,54.54999999999999,0)" xlink:href="#bp"/></g><path fill="#3a414a" d="M194 0L95-120 63-95V0H30v-248h33v124l119-124h40L117-140 236 0h-42" id="bV"/><g id="S"><use transform="matrix(0.05,0,0,0.05,0,0)" xlink:href="#bk"/><use transform="matrix(0.05,0,0,0.05,12,0)" xlink:href="#bV"/></g><g id="T"><use transform="matrix(0.05,0,0,0.05,0,0)" xlink:href="#bH"/><use transform="matrix(0.05,0,0,0.05,3.95,0)" xlink:href="#bN"/></g><g id="U"><use transform="matrix(0.05,0,0,0.05,0,0)" xlink:href="#br"/><use transform="matrix(0.05,0,0,0.05,12.950000000000001,0)" xlink:href="#bs"/><use transform="matrix(0.05,0,0,0.05,26.950000000000003,0)" xlink:href="#bt"/></g><g id="V"><use transform="matrix(0.05,0,0,0.05,0,0)" xlink:href="#br"/><use transform="matrix(0.05,0,0,0.05,12.950000000000001,0)" xlink:href="#bu"/><use transform="matrix(0.05,0,0,0.05,25.900000000000002,0)" xlink:href="#bv"/><use transform="matrix(0.05,0,0,0.05,35.900000000000006,0)" xlink:href="#bv"/></g><g id="W"><use transform="matrix(0.05,0,0,0.05,0,0)" xlink:href="#bw"/><use transform="matrix(0.05,0,0,0.05,10,0)" xlink:href="#bx"/><use transform="matrix(0.05,0,0,0.05,20,0)" xlink:href="#bq"/><use transform="matrix(0.05,0,0,0.05,34.95,0)" xlink:href="#bp"/></g><g id="X"><use transform="matrix(0.05,0,0,0.05,0,0)" xlink:href="#by"/><use transform="matrix(0.05,0,0,0.05,9,0)" xlink:href="#bx"/><use transform="matrix(0.05,0,0,0.05,19,0)" xlink:href="#bl"/><use transform="matrix(0.05,0,0,0.05,24.95,0)" xlink:href="#bz"/><use transform="matrix(0.05,0,0,0.05,33.95,0)" xlink:href="#bA"/><use transform="matrix(0.05,0,0,0.05,43.95,0)" xlink:href="#bx"/><use transform="matrix(0.05,0,0,0.05,53.95,0)" xlink:href="#bl"/><use transform="matrix(0.05,0,0,0.05,59.900000000000006,0)" xlink:href="#bB"/><use transform="matrix(0.05,0,0,0.05,65.85000000000001,0)" xlink:href="#bC"/><use transform="matrix(0.05,0,0,0.05,75.85000000000001,0)" xlink:href="#bS"/><use transform="matrix(0.05,0,0,0.05,85.85000000000001,0)" xlink:href="#bD"/><use transform="matrix(0.05,0,0,0.05,95.85000000000001,0)" xlink:href="#bE"/></g></defs></g></svg>